<svg xmlns="http://www.w3.org/2000/svg" width="437.333" height="868" preserveAspectRatio="xMidYMid meet" version="1.0" viewBox="0 0 328 651"><metadata>Created by potrace 1.15, written by Peter Selinger 2001-2017</metadata><g fill="#000" stroke="none"><path d="M350 5538 c0 -535 3 -1213 7 -1505 l6 -533 53 0 c177 0 379 -112 509 -280 185 -241 237 -647 109 -850 -113 -179 -354 -179 -589 1 -37 28 -70 47 -75 43 -36 -41 -133 -201 -180 -299 -131 -272 -190 -547 -190 -886 0 -188 11 -314 41 -464 34 -171 99 -367 164 -495 50 -99 170 -269 190 -270 7 0 11 64 11 182 0 306 44 535 151 798 198 484 602 830 844 723 206 -91 245 -390 94 -711 -47 -99 -121 -215 -160 -252 -22 -21 -34 -50 -20 -50 3 0 58 28 123 63 488 264 921 630 1224 1035 75 100 197 290 213 335 7 16 -20 17 -453 17 l-461 0 47 75 47 75 458 0 458 0 34 76 c19 42 35 79 35 82 0 3 -205 3 -455 -1 -250 -3 -455 -4 -455 -1 0 2 21 38 47 80 l46 77 438 -5 438 -5 10 31 c85 267 140 494 161 669 18 144 8 444 -20 572 -60 281 -177 502 -377 715 -113 120 -243 225 -243 196 0 -3 26 -47 57 -98 127 -209 198 -423 211 -638 18 -289 -44 -526 -189 -720 -174 -233 -283 -300 -488 -300 -157 0 -250 38 -290 118 -55 111 -18 249 77 289 57 24 129 -3 158 -58 25 -50 34 -33 34 66 0 120 -21 222 -71 350 -82 211 -221 381 -389 478 -41 24 -189 71 -197 63 -2 -2 12 -39 31 -83 70 -165 98 -335 72 -446 -40 -169 -136 -255 -274 -245 -154 11 -298 149 -395 378 -54 130 -70 201 -71 325 -2 218 79 351 225 371 58 8 140 -23 218 -82 32 -24 61 -44 64 -44 7 0 -18 91 -33 120 -23 43 -78 111 -172 213 -300 324 -427 503 -566 797 -105 219 -185 468 -241 744 -15 72 -32 131 -39 134 -9 3 -12 -208 -12 -970z" transform="translate(0.000000,651.000000) scale(0.100000,-0.100000)"/><path d="M593 3130 c-63 -13 -116 -44 -161 -95 -79 -90 -94 -207 -41 -313 32 -65 66 -99 133 -135 60 -32 212 -32 273 1 58 30 111 86 137 141 32 70 29 180 -6 247 -44 83 -110 132 -206 153 -59 12 -69 12 -129 1z" transform="translate(0.000000,651.000000) scale(0.100000,-0.100000)"/></g></svg>