 <svg version="1.0" xmlns="http://www.w3.org/2000/svg" width="700.000000pt" height="700.000000pt" viewBox="0 0 700.000000 700.000000" preserveAspectRatio="xMidYMid meet">
<metadata>
Created by potrace 1.12, written by Peter Selinger 2001-2015
</metadata>
<g transform="translate(0.000000,700.000000) scale(0.100000,-0.100000)" fill="#000000" stroke="none">
<path d="M3375 6859 c-22 -10 -46 -19 -53 -19 -7 0 -37 -11 -65 -23 -29 -13
-74 -29 -102 -36 -27 -7 -73 -23 -102 -37 -30 -13 -58 -24 -63 -24 -14 0 -100
-29 -139 -47 -19 -9 -66 -26 -105 -39 -124 -40 -251 -84 -266 -92 -8 -4 -42
-16 -75 -26 -67 -21 -85 -27 -135 -49 -19 -8 -69 -25 -110 -37 -41 -13 -79
-26 -85 -30 -5 -5 -48 -20 -95 -35 -47 -15 -98 -33 -115 -40 -16 -7 -61 -23
-100 -35 -38 -13 -84 -28 -101 -36 -34 -15 -204 -74 -299 -104 -33 -11 -69
-24 -80 -29 -11 -6 -54 -21 -95 -36 -41 -14 -84 -29 -95 -34 -11 -5 -58 -21
-105 -36 -47 -15 -98 -33 -115 -40 -16 -8 -61 -23 -100 -35 -38 -13 -89 -31
-112 -41 -24 -11 -47 -19 -53 -19 -28 0 -145 -56 -170 -82 -38 -38 -41 -99 -7
-139 24 -30 92 -69 118 -69 9 0 22 -6 28 -13 6 -8 30 -19 53 -26 24 -7 70 -25
103 -40 33 -16 96 -43 140 -61 44 -18 93 -39 109 -46 16 -8 34 -14 40 -14 6 0
34 -11 61 -25 28 -13 54 -25 59 -25 4 0 36 -13 70 -28 33 -16 88 -39 121 -51
33 -13 83 -33 110 -46 28 -13 68 -29 90 -35 22 -7 47 -18 55 -25 8 -7 26 -16
40 -19 36 -10 96 -34 166 -67 34 -16 67 -29 73 -29 7 0 33 -11 59 -25 26 -14
53 -25 60 -25 7 0 20 -4 30 -10 9 -5 58 -26 107 -45 50 -20 113 -47 141 -61
28 -13 56 -24 62 -24 6 0 44 -15 84 -34 40 -19 99 -43 130 -53 31 -11 63 -24
70 -30 7 -6 31 -16 53 -23 22 -7 67 -25 100 -40 33 -15 96 -42 140 -60 44 -18
93 -39 109 -46 16 -8 34 -14 40 -14 6 0 34 -11 61 -25 28 -13 54 -25 59 -25 4
0 36 -13 70 -28 151 -70 171 -75 269 -70 78 4 105 10 177 42 47 20 93 41 102
46 10 6 23 10 31 10 7 0 28 8 47 18 19 10 64 29 100 42 36 13 72 29 81 37 8 7
21 13 28 13 14 0 100 34 151 60 19 10 60 25 90 35 30 10 62 24 71 31 8 8 21
14 28 14 14 0 83 28 179 71 34 16 66 29 71 29 6 0 31 11 57 25 26 14 53 25 61
25 7 0 21 4 31 10 35 19 183 79 211 85 16 3 35 12 41 20 6 8 26 17 43 21 18 3
58 19 89 34 31 16 87 38 125 51 37 12 75 28 83 34 8 6 44 22 80 35 36 12 74
29 85 36 11 8 25 14 32 14 7 0 46 15 86 34 40 19 85 38 100 41 15 4 30 11 33
16 3 5 13 9 22 9 10 0 33 8 52 18 19 10 64 29 100 42 36 13 72 29 81 37 8 7
21 13 28 13 14 0 100 34 151 60 19 10 60 25 90 35 30 10 62 23 70 30 8 7 29
16 46 19 46 10 102 61 109 99 8 45 -16 108 -52 132 -16 11 -56 29 -89 39 -60
19 -87 29 -126 46 -13 5 -59 21 -103 35 -44 15 -89 30 -100 35 -11 5 -56 21
-100 35 -44 14 -89 30 -100 35 -11 5 -54 21 -95 35 -41 15 -84 30 -95 35 -11
5 -58 21 -105 36 -47 15 -99 33 -115 40 -17 7 -64 24 -105 37 -87 29 -236 83
-265 96 -11 5 -58 21 -105 35 -47 15 -94 31 -105 36 -11 5 -56 21 -100 36 -44
14 -89 30 -100 35 -11 5 -54 20 -95 34 -41 15 -84 30 -95 35 -11 5 -47 18 -80
29 -33 11 -132 45 -220 76 -88 31 -179 63 -202 70 -24 8 -58 21 -75 29 -18 8
-64 24 -101 35 -38 12 -83 27 -100 35 -145 65 -293 83 -372 45z m-41 -377 c3
-5 51 -12 106 -16 189 -12 337 -44 494 -105 28 -11 28 -12 10 -26 -10 -8 -28
-15 -40 -15 -11 0 -41 -7 -66 -16 -74 -25 -74 -63 -1 -95 47 -20 157 -26 167
-10 4 5 24 12 47 16 53 9 79 38 79 88 0 32 -6 46 -36 73 -19 19 -39 34 -44 34
-13 0 -82 42 -77 46 7 7 173 -35 204 -51 15 -8 34 -15 42 -15 39 0 270 -129
271 -151 0 -4 -19 -9 -42 -12 -81 -12 -119 -27 -130 -53 -20 -44 7 -58 117
-62 82 -3 100 -1 140 19 26 13 51 32 57 43 17 31 3 102 -27 142 -15 19 -24 38
-21 41 6 6 93 -37 153 -77 22 -16 50 -31 61 -34 32 -10 181 -164 188 -194 4
-15 13 -34 20 -42 35 -41 43 -149 22 -299 -14 -98 -5 -92 -168 -121 -63 -11
-124 -25 -135 -29 -23 -10 -160 -35 -285 -52 -47 -6 -94 -15 -105 -19 -115
-46 -870 -46 -930 0 -5 5 -37 16 -70 25 -56 16 -152 62 -183 88 -8 6 -23 30
-33 53 -20 41 -20 42 -1 74 22 36 106 100 131 100 9 0 34 9 55 21 84 45 368
45 453 -1 21 -11 42 -20 47 -20 17 0 56 -43 56 -61 0 -43 -9 -48 -53 -26 -23
11 -50 24 -59 29 -24 11 -164 10 -186 -1 -9 -5 -41 -20 -69 -33 -44 -19 -53
-27 -53 -50 0 -38 39 -64 127 -84 132 -29 380 -2 475 52 24 13 54 29 68 34 59
25 87 110 52 155 -39 49 -91 82 -164 105 -40 12 -82 26 -93 30 -60 26 -153 35
-365 35 -242 0 -290 -6 -442 -56 -195 -65 -322 -210 -288 -329 12 -41 101
-135 150 -157 19 -8 58 -26 85 -38 53 -24 94 -36 185 -56 30 -6 62 -15 70 -19
8 -4 87 -16 175 -26 217 -25 691 -25 955 0 102 10 190 22 195 26 6 4 53 15
105 23 52 9 103 18 113 22 33 13 17 -69 -28 -143 -10 -17 -22 -32 -26 -32 -3
0 -22 -15 -42 -33 -66 -63 -184 -133 -307 -183 -100 -41 -101 -41 -170 -59
-36 -9 -72 -21 -81 -25 -28 -14 -208 -50 -285 -57 -41 -3 -77 -10 -80 -14 -3
-5 -41 -9 -86 -9 -67 0 -79 2 -69 14 6 7 37 16 69 20 183 21 364 84 419 145
34 39 30 85 -9 114 -61 45 -224 66 -362 48 -111 -15 -173 -36 -209 -69 -39
-37 -32 -62 25 -92 27 -14 48 -28 48 -32 0 -11 -178 -10 -184 1 -3 5 -29 11
-58 14 -113 12 -222 48 -202 66 5 5 37 14 71 21 100 20 118 60 47 101 -44 26
-192 25 -264 -1 -30 -11 -62 -30 -72 -42 -15 -20 -15 -25 -1 -53 20 -40 83
-105 103 -105 8 0 29 -9 45 -20 17 -11 26 -20 22 -20 -20 0 -164 32 -182 40
-11 6 -48 19 -83 30 -82 25 -254 108 -248 119 3 5 32 11 63 15 74 9 156 56
151 88 -11 74 -212 86 -355 22 -65 -29 -81 -92 -41 -160 21 -36 21 -37 3 -30
-11 5 -32 12 -47 16 -41 12 -144 88 -174 127 -14 19 -28 51 -31 72 l-5 38 94
5 c60 3 103 11 119 20 13 9 36 18 51 22 37 8 46 42 19 70 -19 18 -35 21 -133
24 -83 3 -128 -1 -175 -13 -104 -28 -193 -113 -193 -185 0 -58 -33 -46 -91 34
-23 31 -29 50 -29 90 0 58 32 129 67 149 11 7 37 24 56 40 33 26 36 27 66 12
17 -8 45 -22 62 -30 35 -17 81 -19 107 -6 9 5 42 17 72 26 96 29 106 58 34 95
-40 21 -58 24 -150 22 -58 0 -111 -5 -117 -10 -7 -5 -30 -12 -52 -15 -80 -12
-174 -36 -218 -56 -25 -12 -51 -21 -57 -21 -6 0 -29 -9 -50 -20 -22 -11 -58
-29 -81 -41 -22 -11 -43 -18 -46 -15 -11 10 52 98 106 148 66 61 145 105 246
139 39 12 79 28 90 35 11 6 39 14 62 18 23 3 48 9 57 12 11 4 19 -2 25 -19 25
-65 258 -62 330 4 17 15 31 32 31 38 0 14 -104 61 -135 61 -13 0 -26 4 -29 8
-3 5 -57 14 -120 21 -90 11 -137 11 -223 1 -59 -6 -117 -15 -128 -20 -11 -5
-38 -11 -60 -14 -22 -3 -75 -13 -117 -24 -43 -11 -78 -18 -78 -16 0 1 26 14
58 29 31 14 68 32 82 39 14 8 61 25 105 39 44 14 96 32 115 41 20 8 74 22 120
31 47 9 93 20 102 25 23 13 176 30 263 30 l70 -1 -33 -27 c-18 -15 -32 -32
-32 -38 0 -43 113 -72 220 -56 59 9 79 17 116 47 27 22 44 45 44 58 0 20 -55
87 -72 87 -5 0 -27 8 -51 19 -96 43 -109 44 -336 50 -225 6 -226 6 -148 19 43
6 92 12 110 12 18 0 37 4 43 10 17 17 311 32 534 28 188 -4 220 -7 257 -24
l43 -20 -49 -18 c-62 -22 -89 -49 -71 -71 7 -8 17 -15 23 -15 6 0 19 -8 30
-17 16 -15 38 -18 126 -18 96 0 111 3 158 27 79 42 80 75 3 140 -56 49 -113
75 -200 93 -41 9 -85 18 -97 21 -13 2 -23 9 -23 14 0 12 197 14 204 2z"></path>
<path d="M244 5290 c-12 -5 -29 -19 -38 -32 -15 -20 -16 -179 -15 -1748 0
-1619 1 -1728 18 -1768 18 -45 105 -142 127 -142 7 0 32 -13 56 -29 24 -16 54
-32 68 -36 14 -4 32 -13 40 -20 8 -7 35 -23 60 -35 25 -12 52 -28 60 -35 8 -7
26 -16 40 -20 14 -4 44 -20 68 -36 24 -16 46 -29 50 -29 4 0 18 -6 32 -14 14
-7 66 -35 115 -61 50 -27 119 -64 155 -83 36 -19 97 -51 135 -72 39 -21 104
-56 145 -77 107 -56 250 -133 285 -154 17 -10 54 -29 83 -43 29 -14 65 -35 79
-46 14 -11 32 -20 40 -20 8 0 34 -13 58 -29 24 -16 53 -32 66 -36 12 -4 44
-20 72 -37 44 -26 156 -86 212 -115 11 -5 34 -17 50 -26 17 -9 57 -31 90 -48
33 -16 74 -38 90 -48 17 -9 75 -41 130 -71 55 -29 132 -70 170 -91 39 -21 97
-52 130 -69 33 -17 92 -49 130 -70 138 -76 173 -90 220 -90 61 0 82 13 95 58
7 25 10 638 10 1883 0 1594 -2 1852 -15 1895 -20 70 -96 151 -176 191 -67 33
-253 113 -263 113 -3 0 -40 16 -82 35 -41 19 -81 35 -87 35 -7 0 -25 8 -42 18
-16 10 -64 30 -105 46 -41 16 -102 41 -135 56 -33 15 -71 31 -84 35 -14 4 -38
16 -55 26 -17 11 -37 19 -45 19 -8 0 -37 11 -65 24 -28 13 -71 31 -96 42 -25
10 -78 33 -118 51 -41 18 -78 33 -84 33 -5 0 -37 13 -71 29 -76 36 -253 111
-261 111 -3 0 -40 16 -82 35 -41 19 -81 35 -87 35 -7 0 -25 8 -42 18 -16 10
-64 30 -105 46 -41 16 -102 41 -135 56 -33 15 -71 31 -84 35 -14 4 -38 16 -55
26 -17 11 -37 19 -45 19 -8 0 -37 11 -65 24 -28 13 -71 31 -96 42 -25 10 -78
33 -118 51 -41 18 -78 33 -84 33 -6 0 -37 14 -70 30 -32 17 -63 30 -68 30 -6
0 -33 11 -60 24 -59 28 -116 39 -146 26z m726 -482 c14 -83 36 -169 55 -213
10 -22 24 -62 32 -90 8 -27 24 -60 34 -74 10 -13 19 -32 19 -43 0 -19 33 -82
136 -263 9 -16 49 -74 88 -129 39 -54 76 -107 82 -117 6 -10 18 -27 27 -37 10
-10 17 -22 17 -27 0 -4 15 -26 33 -49 53 -64 71 -106 46 -106 -6 0 -13 9 -16
19 -3 11 -12 22 -21 25 -10 3 -39 21 -66 41 -61 44 -106 47 -141 9 -40 -43
-43 -96 -15 -228 5 -27 17 -57 25 -66 8 -9 15 -20 15 -24 0 -38 90 -170 160
-233 64 -58 127 -78 187 -59 35 11 71 133 44 150 -5 3 -12 26 -16 51 -3 25
-13 61 -21 80 -39 93 -4 79 124 -52 50 -52 92 -99 92 -105 0 -6 10 -25 23 -42
26 -35 67 -118 104 -216 19 -49 29 -170 14 -170 -6 0 -11 6 -11 13 0 6 -21 27
-45 45 -41 31 -46 33 -72 20 -26 -13 -28 -18 -28 -74 0 -55 4 -65 36 -105 20
-24 56 -55 80 -68 24 -13 63 -34 86 -46 59 -32 140 -40 207 -21 42 12 68 29
114 75 55 54 60 63 66 114 4 31 12 59 17 62 12 8 12 122 0 129 -5 4 -12 30
-16 59 -6 52 -30 139 -46 167 -25 45 -59 120 -59 131 0 6 -8 18 -17 25 -10 7
-14 16 -10 21 9 8 86 -72 110 -114 6 -12 37 -57 68 -100 77 -108 169 -302 169
-356 0 -12 8 -35 17 -52 15 -25 18 -56 18 -185 0 -147 -11 -225 -37 -254 -4
-6 -8 -22 -8 -36 0 -14 -7 -35 -15 -46 -8 -10 -15 -29 -15 -41 0 -12 -9 -27
-19 -33 -16 -8 -39 0 -120 40 -55 27 -107 50 -115 50 -8 0 -17 4 -20 8 -3 4
-29 20 -58 34 -29 14 -95 47 -147 73 l-94 46 -25 -25 c-29 -29 -24 -51 14 -60
22 -6 328 -151 394 -187 8 -4 39 -20 68 -34 28 -14 52 -29 52 -33 -1 -4 -9
-17 -20 -30 l-19 -22 -73 36 c-40 20 -82 41 -93 47 -22 12 -66 33 -135 66 -25
11 -56 27 -70 35 -80 43 -194 94 -204 90 -6 -3 -19 -16 -29 -29 -18 -25 -18
-25 10 -35 15 -6 35 -14 43 -20 8 -5 35 -19 60 -31 93 -44 406 -199 419 -208
54 -35 -265 -240 -375 -241 -12 0 -41 -7 -65 -16 -84 -30 -319 -51 -427 -39
l-54 7 39 28 c102 75 140 209 96 343 -22 69 -116 164 -181 183 -51 16 -173 19
-200 5 -9 -5 -38 -18 -63 -30 -47 -21 -159 -124 -159 -146 0 -7 -13 -41 -29
-76 -37 -83 -51 -158 -51 -282 0 -87 -2 -98 -15 -87 -8 7 -15 21 -15 31 0 11
-5 19 -11 19 -5 0 -21 26 -35 58 -14 31 -32 70 -40 86 -22 43 -54 142 -54 167
0 13 -6 30 -14 38 -21 23 -38 153 -43 325 -3 98 -1 152 6 159 6 6 11 25 11 42
0 17 9 47 20 68 11 20 20 45 20 54 0 26 59 105 104 140 l41 32 79 -80 c52 -52
98 -89 132 -104 29 -13 55 -29 59 -34 3 -6 28 -11 55 -11 42 0 52 4 75 32 27
32 27 34 23 153 -3 84 -9 129 -20 150 -9 17 -24 50 -34 75 -10 25 -26 54 -36
66 -10 11 -18 24 -18 29 0 4 -25 36 -55 70 -30 35 -55 68 -55 74 0 6 -4 11
-10 11 -5 0 -38 23 -72 50 -34 28 -67 50 -72 50 -6 0 -21 8 -32 18 -22 17 -22
18 -28 747 -4 401 -4 727 -1 723 4 -3 10 -30 15 -60z m179 -1675 c70 -45 161
-168 161 -217 0 -36 -81 -109 -95 -86 -3 6 -20 10 -36 10 -36 0 -91 34 -140
86 -94 101 -106 197 -29 227 24 10 113 -3 139 -20z"></path>
<path d="M6676 5293 c-16 -3 -39 -11 -50 -18 -12 -8 -48 -24 -81 -36 -33 -12
-73 -31 -90 -41 -16 -10 -36 -18 -43 -18 -7 0 -34 -9 -59 -21 -24 -11 -77 -33
-116 -49 -40 -16 -96 -40 -124 -55 -29 -14 -58 -25 -63 -25 -6 0 -30 -9 -53
-20 -23 -12 -71 -32 -107 -47 -36 -14 -87 -36 -114 -49 -28 -13 -56 -24 -63
-24 -7 0 -27 -8 -45 -18 -18 -10 -60 -29 -92 -41 -33 -12 -71 -28 -85 -36 -15
-8 -57 -26 -96 -40 -38 -14 -81 -32 -96 -40 -14 -8 -52 -24 -84 -36 -33 -12
-73 -31 -90 -41 -16 -10 -36 -18 -43 -18 -7 0 -34 -9 -59 -21 -24 -11 -77 -33
-116 -49 -40 -16 -96 -40 -124 -55 -29 -14 -58 -25 -63 -25 -6 0 -30 -9 -53
-20 -23 -12 -71 -32 -107 -47 -36 -14 -87 -36 -114 -49 -28 -13 -56 -24 -63
-24 -7 0 -27 -8 -45 -18 -18 -10 -60 -29 -92 -41 -33 -12 -71 -28 -85 -36 -15
-7 -57 -25 -96 -40 -38 -15 -81 -33 -96 -40 -14 -8 -52 -24 -85 -36 -32 -12
-76 -33 -96 -46 -21 -12 -42 -23 -48 -23 -5 0 -10 -4 -10 -10 0 -5 -12 -21
-26 -35 -14 -14 -36 -49 -50 -79 l-24 -53 2 -1888 3 -1887 25 -20 c36 -29 130
-21 188 16 23 14 68 38 100 53 31 15 76 40 98 55 23 15 49 28 57 28 8 0 25 8
38 18 13 10 38 25 54 34 67 33 272 143 305 163 19 12 64 36 100 54 36 18 97
49 135 70 39 21 97 53 130 70 33 17 92 48 130 69 39 21 95 51 125 66 30 15 62
32 70 37 14 8 45 25 191 103 30 15 61 34 69 41 8 7 26 16 40 20 14 4 44 20 68
36 24 16 47 29 52 29 8 0 53 23 167 87 32 18 90 49 128 69 39 20 100 52 137
72 37 21 94 50 125 67 32 16 81 43 108 59 28 16 90 50 139 75 49 25 118 63
155 83 36 20 80 43 97 52 39 19 86 68 116 121 l23 40 3 1725 c1 949 0 1735 -3
1747 -5 23 -63 64 -86 62 -8 -1 -27 -4 -43 -6z m-1323 -915 c14 -29 28 -60 31
-68 3 -8 10 -22 15 -30 5 -8 12 -22 15 -30 3 -8 10 -22 15 -30 5 -8 19 -37 31
-65 13 -27 28 -57 35 -65 20 -24 28 -75 13 -87 -12 -8 -123 -53 -134 -53 -2 0
-4 8 -4 19 0 10 -6 24 -14 30 -8 7 -17 24 -21 39 -8 32 -19 17 -29 -39 -4 -21
-13 -42 -21 -49 -8 -7 -15 -20 -15 -30 0 -12 -21 -29 -60 -49 -78 -41 -91 -40
-83 2 3 17 12 39 19 48 8 8 14 22 14 31 0 20 37 137 54 168 7 14 23 59 36 100
13 41 26 80 30 85 4 6 15 36 24 68 9 31 18 57 20 57 2 0 15 -24 29 -52z m861
-304 c4 -17 20 -66 36 -108 l28 -77 -53 6 c-125 15 -215 -77 -215 -220 0 -92
34 -114 133 -87 l37 10 0 -210 c0 -137 -3 -207 -10 -203 -5 3 -10 12 -10 18 0
7 -10 27 -23 46 -12 19 -29 46 -38 60 -47 77 -176 81 -215 6 -17 -34 -18 -124
-2 -162 7 -15 25 -46 40 -67 16 -21 28 -45 28 -51 0 -16 -26 -66 -38 -74 -5
-3 -21 -27 -36 -53 -15 -27 -31 -48 -35 -48 -4 0 -11 -15 -16 -32 -13 -43 -29
-42 -33 2 -2 19 -9 42 -17 50 -7 8 -16 25 -19 37 -10 30 -63 73 -91 73 -44 0
-90 -84 -66 -121 6 -10 11 -27 11 -37 0 -11 11 -36 25 -56 16 -24 25 -51 25
-76 0 -38 2 -40 31 -40 17 0 39 5 49 10 10 6 41 13 68 16 59 6 68 -2 84 -77 9
-49 8 -60 -13 -112 -13 -33 -28 -59 -34 -58 -5 0 -12 21 -15 46 -7 55 -29 80
-63 71 -42 -10 -85 -103 -57 -121 17 -11 11 -33 -10 -40 -30 -9 -50 12 -50 51
0 32 -14 47 -22 23 -3 -8 -10 -8 -25 2 -32 19 -37 6 -13 -35 11 -20 20 -41 20
-47 0 -5 18 -47 40 -94 22 -47 40 -92 40 -101 0 -9 6 -22 14 -28 7 -6 23 -40
36 -76 12 -36 31 -83 40 -105 10 -22 30 -67 45 -100 50 -111 50 -108 13 -100
-64 15 -132 7 -188 -19 -76 -37 -97 -50 -129 -80 -15 -14 -31 -26 -36 -26 -5
0 -17 -7 -27 -17 -10 -9 -19 -14 -21 -12 -4 5 -58 129 -68 154 -20 52 -44 104
-49 105 -5 0 -49 -135 -76 -235 -9 -33 -20 -69 -25 -80 -4 -11 -11 -31 -15
-45 -10 -40 -22 -48 -81 -60 -31 -7 -72 -21 -92 -32 -95 -53 -206 -154 -263
-242 -16 -22 -28 -38 -28 -35 0 18 41 162 53 186 8 16 18 50 22 76 4 26 11 50
16 53 5 3 9 17 9 32 0 15 7 40 15 56 15 29 40 111 54 178 5 21 13 43 19 50 10
13 37 100 51 170 5 21 13 43 19 50 5 7 16 40 23 73 7 33 18 72 26 87 7 15 13
32 13 38 0 20 -20 -1 -35 -36 -8 -19 -21 -34 -29 -34 -12 0 -16 -11 -16 -44 0
-35 -6 -50 -29 -75 -41 -44 -50 -40 -38 15 10 41 9 48 -8 60 -25 19 -30 18
-57 -8 -35 -34 -67 -108 -70 -161 -3 -53 -16 -59 -48 -24 -18 18 -21 31 -17
77 9 112 44 167 169 259 69 50 92 82 84 115 -3 13 1 36 9 52 8 16 15 35 15 42
0 7 6 23 14 35 8 12 20 50 27 85 14 66 7 94 -23 100 -20 4 -94 -74 -108 -113
-6 -16 -19 -46 -29 -65 -10 -19 -21 -53 -25 -75 -13 -74 -28 -105 -52 -105
-12 0 -27 7 -34 15 -7 9 -33 25 -57 36 -24 11 -46 26 -49 34 -3 7 6 34 20 60
14 25 26 51 26 58 0 7 10 30 22 52 13 26 23 65 26 110 4 62 2 72 -17 90 -21
18 -23 18 -55 1 -63 -34 -161 -155 -185 -228 -7 -20 -23 -52 -36 -71 -12 -19
-26 -53 -30 -76 -4 -22 -10 -43 -15 -46 -14 -9 -20 57 -20 239 l0 181 56 29
c86 45 141 123 150 214 5 47 2 64 -16 101 -22 41 -25 43 -57 38 -19 -3 -55
-19 -80 -34 -25 -15 -54 -32 -64 -38 -10 -5 -19 -14 -19 -20 -1 -10 -66 -85
-75 -85 -7 0 6 63 15 75 8 10 34 97 52 175 6 25 16 52 23 60 7 8 15 28 17 43
2 18 12 33 28 42 49 26 158 75 166 75 5 0 38 14 74 31 107 52 182 86 240 109
30 12 80 34 111 50 31 15 72 31 90 35 l34 7 -25 -28 c-14 -16 -30 -33 -37 -39
-20 -18 -77 -99 -92 -130 -7 -16 -24 -51 -37 -77 -25 -51 -42 -128 -28 -128
18 0 33 16 39 41 7 30 81 106 91 96 8 -7 -21 -70 -45 -100 -22 -27 -4 -33 24
-7 32 30 39 22 20 -24 -20 -46 -11 -103 16 -111 24 -8 75 21 101 56 19 25 29
92 16 104 -11 11 -48 -19 -57 -45 l-8 -25 -13 27 c-19 41 2 103 50 148 21 19
45 49 53 65 20 40 64 79 107 94 19 7 45 18 56 23 37 17 72 -14 79 -70 13 -101
16 -111 45 -136 16 -13 37 -23 47 -21 10 2 21 4 25 4 10 1 48 77 48 96 0 8 -6
24 -12 35 -17 26 1 56 31 53 28 -4 27 2 -9 47 l-30 38 27 7 c19 4 34 0 54 -14
45 -34 59 -25 51 32 -3 19 -25 50 -62 87 -47 47 -66 59 -106 67 l-49 10 40 17
c22 10 65 30 95 45 30 15 69 31 85 35 17 4 37 13 45 20 8 7 31 18 50 26 19 7
64 26 100 43 63 29 76 35 130 57 14 5 32 14 40 19 8 5 31 15 50 23 32 14 36
14 51 -6 9 -12 19 -35 23 -52z m-123 -1234 c12 -33 28 -65 35 -71 8 -6 14 -17
14 -23 0 -7 18 -48 40 -91 22 -43 40 -85 40 -92 0 -7 5 -13 10 -13 6 0 10 -8
10 -18 0 -10 11 -33 25 -52 14 -19 25 -39 25 -45 0 -7 11 -32 25 -56 14 -24
27 -51 31 -59 6 -15 42 -89 72 -145 35 -68 36 -63 -20 -90 -29 -13 -66 -33
-83 -45 -16 -11 -36 -20 -43 -20 -7 0 -32 -13 -55 -28 -71 -47 -174 -95 -191
-89 -9 4 -16 14 -16 24 0 10 -9 35 -20 55 l-19 37 27 14 c15 8 65 34 112 59
130 68 130 67 118 97 -20 51 -33 77 -55 113 -13 21 -23 43 -23 50 0 7 -15 37
-34 68 -18 30 -37 69 -40 87 -4 17 -13 34 -21 36 -7 3 -16 19 -20 36 -4 17
-11 33 -16 36 -5 4 -9 13 -9 22 0 8 -9 28 -20 43 -27 38 -35 82 -19 111 16 31
81 109 91 109 4 0 17 -27 29 -60z m-1479 -726 c32 -7 32 -15 -9 -124 -14 -36
-36 -99 -49 -140 -14 -41 -31 -88 -38 -105 -8 -16 -24 -61 -37 -100 -12 -38
-26 -74 -29 -80 -4 -5 -20 -52 -35 -103 -15 -51 -33 -105 -41 -120 -8 -15 -17
-42 -20 -60 -3 -18 -10 -35 -15 -38 -5 -3 -9 -15 -9 -27 0 -12 -7 -34 -14 -49
-19 -37 -4 -45 37 -19 17 11 59 34 92 50 33 17 79 42 103 56 23 14 45 25 47
25 12 0 4 -49 -10 -60 -8 -7 -15 -22 -15 -34 0 -11 -6 -40 -13 -64 -14 -46
-35 -61 -172 -129 -27 -14 -52 -28 -55 -32 -8 -9 -39 -28 -95 -56 -27 -14 -79
-41 -114 -60 -65 -36 -84 -38 -64 -7 6 10 14 33 18 52 4 19 11 40 16 46 8 9
40 101 109 304 15 47 40 114 54 149 14 36 26 72 26 80 0 9 12 39 25 66 14 28
25 58 25 67 0 9 4 19 9 22 5 3 12 26 15 51 4 24 11 47 15 49 4 3 20 45 35 93
32 102 33 103 45 123 6 8 20 49 32 90 11 41 23 81 25 87 3 13 41 12 106 -3z"></path>
</g>
</svg>