<?xml version="1.0" standalone="no"?>
<!DOCTYPE svg PUBLIC "-//W3C//DTD SVG 20010904//EN"
 "http://www.w3.org/TR/2001/REC-SVG-20010904/DTD/svg10.dtd">
<svg version="1.0" xmlns="http://www.w3.org/2000/svg"
 width="517.000000pt" height="507.000000pt" viewBox="0 0 517.000000 507.000000"
 preserveAspectRatio="xMidYMid meet">
<metadata>
Created by potrace 1.15, written by Peter Selinger 2001-2017
</metadata>
<g transform="translate(0.000000,507.000000) scale(0.100000,-0.100000)"
fill="#000000" stroke="none">
<path d="M2449 4813 c-72 -142 -174 -340 -226 -440 l-94 -183 175 0 176 0 56
112 57 113 53 -113 53 -112 176 0 177 0 -162 318 c-226 442 -290 562 -300 562
-5 0 -68 -116 -141 -257z"/>
<path d="M545 3644 c-66 -158 -122 -291 -124 -297 -2 -6 16 2 40 17 89 55 213
109 288 123 124 25 224 -6 278 -85 29 -44 46 -131 38 -195 -19 -150 -116 -224
-302 -235 l-93 -5 0 -383 c0 -225 4 -384 9 -384 5 0 32 42 59 93 128 236 269
378 419 423 270 81 313 -189 77 -484 -36 -45 -63 -86 -59 -91 9 -15 349 -300
359 -301 5 0 23 43 41 97 41 128 88 215 150 278 88 90 178 117 232 71 25 -22
28 -30 28 -88 -1 -73 -21 -122 -109 -268 -51 -83 -56 -95 -42 -106 21 -15 20
-48 0 -69 -31 -31 -71 -43 -186 -59 -128 -18 -183 -34 -229 -67 -68 -48 -117
-175 -105 -270 9 -70 40 -125 96 -167 l45 -35 6 74 c7 84 30 139 80 187 65 64
145 64 187 1 30 -44 24 -91 -18 -134 -16 -17 -30 -34 -30 -38 0 -12 100 -7
133 7 45 18 68 58 74 127 3 33 10 59 14 59 5 0 9 -9 9 -20 0 -11 3 -20 7 -20
4 0 34 26 67 58 32 31 56 53 53 47 -6 -12 -667 -1474 -674 -1493 -9 -22 20
-13 81 28 79 51 217 115 292 136 32 8 113 18 179 21 107 5 136 2 269 -26 83
-17 152 -28 155 -26 2 3 62 134 132 292 l128 288 19 -45 c77 -178 234 -526
241 -533 4 -4 56 4 117 18 67 16 156 28 229 32 196 9 335 -28 526 -144 50 -30
94 -53 98 -51 7 2 -370 847 -624 1401 l-45 99 38 -30 c20 -16 45 -39 56 -51
22 -24 36 -19 37 12 0 21 1 21 9 2 5 -11 9 -38 9 -60 1 -49 30 -99 70 -120 30
-15 131 -21 131 -7 -1 4 -14 23 -30 42 -70 81 -7 194 96 174 81 -15 150 -118
162 -242 l7 -64 49 43 c62 55 85 106 86 185 0 193 -89 278 -325 310 -130 17
-189 40 -207 80 -10 22 -9 28 9 42 l22 17 -40 65 c-87 141 -122 221 -127 292
-4 61 -3 68 21 92 52 52 138 27 234 -67 64 -62 116 -159 158 -291 l31 -98 170
142 c93 79 177 150 187 160 17 16 16 19 -31 76 -110 132 -163 242 -170 354 -3
67 -1 79 20 110 33 49 62 61 133 58 44 -3 81 -14 136 -39 132 -63 243 -186
356 -394 26 -49 54 -90 61 -93 9 -3 12 78 12 381 l0 384 -92 5 c-210 12 -308
101 -308 280 0 136 73 224 200 243 94 14 246 -33 377 -116 36 -22 63 -34 63
-27 -1 7 -54 139 -119 293 l-118 280 -771 3 c-425 1 -772 -2 -772 -6 0 -4 21
-18 48 -31 148 -72 282 -189 379 -334 47 -71 68 -147 44 -161 -7 -4 -40 18
-78 53 -74 68 -123 89 -200 82 l-48 -3 25 -17 c51 -34 82 -65 100 -102 25 -48
25 -52 1 -39 -11 5 -45 10 -76 10 l-56 0 33 -40 c27 -35 33 -51 36 -105 4 -61
3 -66 -26 -95 -55 -54 -150 -36 -217 42 -49 57 -62 91 -80 203 -9 55 -25 120
-37 144 -69 143 -366 160 -514 29 -22 -19 -59 -40 -84 -47 -124 -36 -174 -151
-119 -278 l21 -48 15 30 c39 75 82 94 121 52 44 -46 17 -123 -53 -157 -67 -32
-162 -21 -205 25 -43 46 -38 144 10 199 17 19 30 36 30 40 0 10 -100 7 -121
-4 -23 -13 -25 -1 -5 39 16 30 90 101 106 101 6 0 10 5 10 10 0 6 -28 10 -63
10 -72 0 -121 -25 -192 -99 -42 -44 -59 -50 -69 -25 -14 37 24 121 95 209 98
124 192 201 327 269 28 14 52 31 52 36 0 7 -271 10 -768 10 l-768 0 -119 -286z"/>
<path d="M894 1778 c-15 -29 -222 -428 -460 -885 -239 -458 -434 -837 -434
-843 0 -7 165 -10 493 -10 l494 0 64 142 c35 77 65 145 67 149 2 5 -135 10
-305 11 l-309 3 338 655 c185 360 337 660 338 667 0 6 -44 37 -97 69 -54 31
-112 65 -130 76 l-32 19 -27 -53z"/>
<path d="M4121 1758 c-67 -39 -125 -76 -127 -83 -3 -7 148 -309 334 -671 l340
-659 -308 -5 -308 -5 63 -140 62 -140 99 -6 c187 -12 894 -10 894 2 0 12 -906
1757 -919 1771 -3 4 -62 -24 -130 -64z"/>
</g>
</svg>
