<?xml version="1.0" standalone="no"?>
<!DOCTYPE svg PUBLIC "-//W3C//DTD SVG 20010904//EN"
 "http://www.w3.org/TR/2001/REC-SVG-20010904/DTD/svg10.dtd">
<svg version="1.0" xmlns="http://www.w3.org/2000/svg"
 width="708.000000pt" height="787.000000pt" viewBox="0 0 708.000000 787.000000"
 preserveAspectRatio="xMidYMid meet">
<metadata>
Created by potrace 1.15, written by Peter Selinger 2001-2017
</metadata>
<g transform="translate(0.000000,787.000000) scale(0.100000,-0.100000)"
fill="#000000" stroke="none">
<path d="M3620 7833 c86 -71 194 -179 322 -323 144 -161 200 -256 238 -403 82
-323 22 -660 -157 -872 -172 -204 -420 -270 -603 -160 -126 76 -170 253 -102
408 47 106 203 196 340 197 30 0 42 4 42 15 0 27 -182 201 -272 259 -210 136
-389 197 -688 234 -246 31 -318 34 -519 22 -155 -9 -273 -24 -623 -77 -21 -3
-38 -9 -38 -13 0 -4 57 -15 128 -24 267 -37 403 -74 578 -156 181 -84 327
-203 409 -330 90 -141 154 -340 162 -508 10 -203 -40 -303 -185 -374 -62 -30
-74 -33 -172 -33 -82 0 -113 4 -142 19 -55 27 -125 92 -156 144 -23 40 -27 58
-27 124 0 72 3 82 52 179 38 75 49 105 40 111 -6 4 -52 17 -102 30 -76 18
-126 22 -315 26 -261 5 -402 -8 -540 -48 -250 -73 -510 -209 -725 -380 -87
-69 -245 -218 -245 -230 0 -5 17 0 38 10 43 21 153 50 287 76 65 13 140 18
270 18 168 0 190 -2 320 -32 238 -55 358 -99 464 -171 107 -73 150 -154 158
-296 4 -76 2 -99 -17 -149 -40 -104 -122 -162 -267 -185 -76 -12 -152 1 -230
39 -50 25 -65 38 -82 73 -35 75 -37 154 -5 339 l7 37 -64 -18 c-303 -90 -492
-203 -699 -417 -257 -267 -368 -457 -475 -817 -15 -48 -25 -95 -23 -104 2 -10
52 35 147 136 169 178 274 261 426 336 217 108 379 122 533 47 76 -37 162
-124 202 -206 29 -58 32 -73 27 -121 -11 -109 -88 -225 -186 -283 -42 -24 -56
-27 -146 -27 -93 0 -105 2 -168 33 -50 25 -80 49 -122 98 -30 36 -58 76 -61
89 -3 14 -10 25 -14 25 -27 0 -160 -177 -250 -334 -109 -189 -171 -354 -210
-552 -26 -133 -47 -438 -33 -479 9 -27 13 -22 80 116 93 187 158 285 263 389
152 152 283 196 466 156 126 -27 218 -96 253 -191 74 -199 -25 -397 -224 -450
-148 -39 -267 -28 -353 35 -23 16 -46 30 -51 30 -28 0 -59 -228 -67 -495 -7
-213 5 -419 32 -553 35 -172 105 -392 125 -392 5 0 9 35 9 78 0 70 20 249 36
321 46 208 181 470 280 546 147 112 342 95 484 -44 106 -104 126 -227 61 -365
-62 -129 -170 -190 -297 -166 -35 7 -91 25 -125 41 -33 16 -65 27 -69 24 -19
-12 -32 -124 -28 -240 4 -105 9 -133 41 -228 44 -128 121 -283 185 -370 82
-111 212 -237 246 -237 7 0 -8 39 -31 87 -162 333 15 635 372 636 153 1 298
-63 415 -182 186 -189 232 -437 123 -656 -149 -297 -544 -428 -966 -321 -201
51 -367 142 -515 281 -44 41 -83 75 -87 75 -4 0 9 -28 28 -62 157 -286 366
-453 707 -565 289 -95 460 -123 812 -130 308 -6 399 3 663 67 453 111 857 328
1094 587 74 81 81 93 56 93 -40 0 -383 133 -535 208 -123 61 -309 180 -430
277 -180 143 -495 422 -557 493 -331 375 -608 948 -664 1367 -17 135 -6 485
19 595 28 117 76 246 164 435 110 236 184 341 360 511 263 254 601 442 918
510 101 22 304 24 395 5 502 -105 899 -524 1011 -1066 25 -125 26 -368 1 -485
-50 -230 -141 -401 -302 -568 -194 -202 -407 -298 -655 -295 -259 2 -524 119
-645 284 -81 110 -115 316 -77 466 25 99 57 157 118 213 165 152 476 144 582
-14 49 -74 66 -143 59 -251 -3 -51 -15 -116 -26 -149 -12 -33 -19 -61 -16 -64
18 -18 231 198 274 278 93 173 95 422 6 616 -71 156 -158 252 -280 310 -111
53 -183 68 -325 67 -288 -2 -522 -113 -726 -345 -204 -231 -294 -557 -264
-954 29 -385 135 -604 447 -925 207 -213 328 -304 597 -453 334 -185 594 -291
1164 -475 l282 -91 278 242 c320 279 686 640 824 813 416 523 695 1072 834
1640 46 191 84 461 84 599 l0 61 -76 -145 c-146 -280 -254 -440 -384 -571 -76
-76 -112 -104 -174 -135 -72 -35 -87 -39 -177 -42 -163 -7 -251 35 -314 149
-27 48 -30 63 -30 140 0 77 3 90 28 127 34 52 106 106 172 129 89 30 165 20
319 -44 32 -13 62 -21 67 -16 31 33 112 257 143 400 48 217 66 584 42 839 -17
188 -34 282 -66 367 -23 61 -40 74 -40 30 0 -55 -70 -371 -106 -478 -45 -136
-51 -148 -134 -265 -126 -176 -253 -286 -376 -325 -49 -15 -68 -16 -127 -7
-123 19 -215 82 -269 184 -17 34 -22 60 -22 123 -1 140 64 244 189 302 53 24
72 28 160 28 93 0 107 -3 190 -37 49 -20 93 -34 97 -30 26 28 38 395 18 549
-38 284 -146 577 -333 903 -93 163 -154 247 -237 332 -67 68 -143 118 -157
104 -3 -2 13 -56 35 -118 50 -141 89 -315 97 -433 23 -308 -115 -717 -310
-918 -113 -118 -318 -148 -481 -71 -63 29 -107 78 -143 154 -23 49 -26 67 -26
170 0 108 2 119 31 180 63 132 139 173 319 174 61 1 129 -3 153 -7 40 -7 42
-6 42 19 0 40 -47 217 -81 302 -72 182 -167 322 -324 477 -173 171 -392 337
-630 478 -187 111 -500 247 -567 247 -20 0 -18 -5 22 -37z"/>
</g>
</svg>
